<?xml version="1.0" encoding="UTF-8"?>
<svg version="1.1" xmlns="http://www.w3.org/2000/svg" width="426" height="183">
<path d="M0 0 C140.58 0 281.16 0 426 0 C426 60.39 426 120.78 426 183 C285.42 183 144.84 183 0 183 C0 122.61 0 62.22 0 0 Z " fill="#FEFEFE" transform="translate(0,0)"/>
<path d="M0 0 C4.82843982 2.66134478 7.68749862 6.99573595 9.35832214 12.20018005 C9.96199825 15.25701413 9.96433996 18.18069957 9.98950195 21.29711914 C9.99935875 22.31024673 9.99935875 22.31024673 10.00941467 23.34384155 C10.02908605 25.57428109 10.04080005 27.80465329 10.05078125 30.03515625 C10.05485678 30.80107023 10.0589323 31.56698421 10.06313133 32.35610771 C10.08397168 36.41472984 10.09827889 40.47331842 10.10766602 44.53198242 C10.11869125 48.69891549 10.15305133 52.86530879 10.19283772 57.03205204 C10.21914646 60.25710455 10.22737067 63.48203159 10.23094749 66.70718193 C10.23578132 68.24159809 10.24730248 69.77600987 10.26598549 71.3103199 C10.49736025 91.58089674 10.49736025 91.58089674 3.3125 99.125 C-1.30090417 101.66237229 -5.93351668 102.25778606 -11.1875 101.5 C-14.33094435 99.75364203 -16.65612726 98.03137274 -19.1875 95.5 C-19.5175 106.39 -19.8475 117.28 -20.1875 128.5 C-26.4575 128.5 -32.7275 128.5 -39.1875 128.5 C-39.1875 85.93 -39.1875 43.36 -39.1875 -0.5 C-35.2275 -0.5 -31.2675 -0.5 -27.1875 -0.5 C-24.4375 2.5 -24.4375 2.5 -23.1875 5.5 C-22.64480469 5.07847656 -22.10210937 4.65695313 -21.54296875 4.22265625 C-20.82753906 3.67480469 -20.11210937 3.12695312 -19.375 2.5625 C-18.66730469 2.01722656 -17.95960938 1.47195312 -17.23046875 0.91015625 C-11.97100276 -2.72018261 -5.68076398 -2.44229815 0 0 Z " fill="#3568AC" transform="translate(263.1875,44.5)"/>
<path d="M0 0 C36.55695813 0 36.55695813 0 44.171875 6.0859375 C50.5519799 12.76596186 52.14832147 20.96379394 52.23828125 29.84375 C52.246353 30.60868774 52.25442474 31.37362549 52.26274109 32.16174316 C52.27655323 33.78228512 52.28728819 35.40285583 52.29516602 37.0234375 C52.30662237 38.66024463 52.32697231 40.29701631 52.35668945 41.93359375 C52.55692412 52.97670345 52.59357602 64.15519668 45.75 73.5 C37.78073841 80.74478326 30.8775699 81 20 81 C20 96.51 20 112.02 20 128 C13.4 128 6.8 128 0 128 C0 85.76 0 43.52 0 0 Z " fill="#2F65AC" transform="translate(80,16)"/>
<path d="M0 0 C6.63222329 6.94069879 7.84452264 14.19238006 7.78515625 23.515625 C7.7837413 24.35341492 7.78232635 25.19120483 7.78086853 26.05438232 C7.77528197 28.72379157 7.76273194 31.3931162 7.75 34.0625 C7.74498326 35.87499879 7.74042066 37.68749889 7.73632812 39.5 C7.72616888 43.93755864 7.70659086 48.37493486 7.6875 52.8125 C-1.8825 52.8125 -11.4525 52.8125 -21.3125 52.8125 C-21.168125 56.89625 -21.02375 60.98 -20.875 65.1875 C-20.83189697 66.47446777 -20.78879395 67.76143555 -20.74438477 69.08740234 C-20.6872229 70.60261475 -20.6872229 70.60261475 -20.62890625 72.1484375 C-20.59224854 73.18532715 -20.55559082 74.2222168 -20.51782227 75.29052734 C-20.47085777 77.80675166 -20.47085777 77.80675166 -19.3125 79.8125 C-16.89630177 80.06280977 -16.89630177 80.06280977 -14.3125 79.8125 C-11.96479357 76.29094036 -11.93580386 74.30478157 -11.6875 70.125 C-11.56375 68.041875 -11.44 65.95875 -11.3125 63.8125 C-5.0425 63.8125 1.2275 63.8125 7.6875 63.8125 C7.99956908 73.59066456 8.23204256 82.5985442 2.0625 90.6875 C-3.12368149 96.06434993 -8.93478569 98.02152145 -16.3125 98.3125 C-24.20769527 97.99147554 -29.76342817 95.79743517 -35.25 90.0625 C-41.74901557 82.74918697 -40.6386679 72.27595475 -40.6484375 63.12890625 C-40.65487753 61.70458345 -40.66160675 60.28026192 -40.66860962 58.85594177 C-40.68053184 55.88138768 -40.68429553 52.90694931 -40.68310547 49.93237305 C-40.68290219 46.14194924 -40.71023582 42.35227436 -40.74464989 38.56202793 C-40.76700451 35.62355716 -40.77094047 32.68526451 -40.76988602 29.74671745 C-40.7722279 28.35021311 -40.7809708 26.95370279 -40.79655075 25.5572834 C-40.88987485 16.33217788 -40.41144432 8.78267743 -34.3828125 1.47265625 C-23.79869343 -7.21992346 -11.49587955 -7.59161857 0 0 Z " fill="#3266AC" transform="translate(211.3125,48.1875)"/>
<path d="M0 0 C5.61 0 11.22 0 17 0 C17 8.25 17 16.5 17 25 C26.57 25 36.14 25 46 25 C46 30.61 46 36.22 46 42 C36.43 42 26.86 42 17 42 C17 64.44 17 86.88 17 110 C11.72 110 6.44 110 1 110 C0 109 0 109 -0.12025452 106.33616638 C-0.1169236 104.5541256 -0.1169236 104.5541256 -0.11352539 102.73608398 C-0.11367142 102.08244873 -0.11381744 101.42881348 -0.1139679 100.75537109 C-0.11326883 98.58557872 -0.10547678 96.41587121 -0.09765625 94.24609375 C-0.09579205 92.74536689 -0.09436816 91.24463943 -0.09336853 89.74391174 C-0.08954352 85.78681774 -0.0797134 81.82976022 -0.06866455 77.87268066 C-0.05665533 73.1286825 -0.05204811 68.38467215 -0.04621124 63.64066315 C-0.03650162 56.42708336 -0.01734498 49.21358369 0 42 C-9.9 42 -19.8 42 -30 42 C-30 36.39 -30 30.78 -30 25 C-20.1 25 -10.2 25 0 25 C0 16.75 0 8.5 0 0 Z " fill="#396BAE" transform="translate(306,13)"/>
<path d="M0 0 C3.96 0 7.92 0 12 0 C12.33 0.66 12.66 1.32 13 2 C12.01 2.33 11.02 2.66 10 3 C10 2.34 10 1.68 10 1 C9.34 1 8.68 1 8 1 C8.33 2.65 8.66 4.3 9 6 C9.99 5.67 10.98 5.34 12 5 C12.99 6.485 12.99 6.485 14 8 C14.99 8 15.98 8 17 8 C17 8.66 17 9.32 17 10 C19.97 10.495 19.97 10.495 23 11 C23 11.66 23 12.32 23 13 C23.66 13.33 24.32 13.66 25 14 C24.34 14 23.68 14 23 14 C22.690625 14.78375 22.38125 15.5675 22.0625 16.375 C21 19 21 19 20 21 C19.89384956 22.7951927 19.85119817 24.59429208 19.83886719 26.39257812 C19.82925964 27.52135376 19.8196521 28.65012939 19.80975342 29.81311035 C19.80550354 31.04009644 19.80125366 32.26708252 19.796875 33.53125 C19.78832489 35.42248596 19.78832489 35.42248596 19.77960205 37.35192871 C19.77013727 40.02860114 19.76324907 42.7051611 19.75976562 45.38183594 C19.7543161 48.78657776 19.73036807 52.19091249 19.70179367 55.59552765 C19.67849233 58.86573692 19.67670424 62.1359694 19.671875 65.40625 C19.6595282 66.61704224 19.6471814 67.82783447 19.63446045 69.07531738 C19.65130027 75.55062276 20.21409068 80.99444706 22.45294189 87.09509277 C23 89 23 89 22 91 C23.98 91 25.96 91 28 91 C26.02 91.99 26.02 91.99 24 93 C24 93.99 24 94.98 24 96 C22.68 96 21.36 96 20 96 C19.67 106.89 19.34 117.78 19 129 C12.73 129 6.46 129 0 129 C0 86.43 0 43.86 0 0 Z " fill="#2F65AC" transform="translate(224,44)"/>
<path d="M0 0 C1.8871875 0.0309375 1.8871875 0.0309375 3.8125 0.0625 C3.90983092 7.15684233 3.91337193 14.04444143 2.8125 21.0625 C2.12542969 21.09988281 1.43835938 21.13726562 0.73046875 21.17578125 C-0.17058594 21.24152344 -1.07164062 21.30726562 -2 21.375 C-2.89332031 21.43300781 -3.78664062 21.49101563 -4.70703125 21.55078125 C-7.53145234 22.1334571 -8.43488613 22.82335609 -10.1875 25.0625 C-11.67594879 28.03939758 -11.35341605 30.7611382 -11.39282227 34.08251953 C-11.40767166 35.16560394 -11.40767166 35.16560394 -11.42282104 36.27056885 C-11.45446031 38.66211648 -11.47920299 41.05368399 -11.50390625 43.4453125 C-11.52447369 45.10155764 -11.5454701 46.75779751 -11.56687927 48.41403198 C-11.62212167 52.77711724 -11.67152137 57.14025004 -11.71972656 61.50341797 C-11.76992577 65.95414469 -11.82562007 70.40480223 -11.88085938 74.85546875 C-11.98846749 83.59108897 -12.08939887 92.32676784 -12.1875 101.0625 C-18.4575 101.0625 -24.7275 101.0625 -31.1875 101.0625 C-31.1875 68.0625 -31.1875 35.0625 -31.1875 1.0625 C-27.2275 1.0625 -23.2675 1.0625 -19.1875 1.0625 C-16.4375 4.0625 -16.4375 4.0625 -15.1875 7.0625 C-14.64480469 6.64097656 -14.10210937 6.21945313 -13.54296875 5.78515625 C-12.82753906 5.23730469 -12.11210937 4.68945312 -11.375 4.125 C-10.66730469 3.57972656 -9.95960938 3.03445312 -9.23046875 2.47265625 C-6.14475153 0.34274436 -3.65049067 -0.05984411 0 0 Z " fill="#3166AC" transform="translate(167.1875,42.9375)"/>
<path d="M0 0 C2.4375 0.4375 2.4375 0.4375 4.4375 2.4375 C4.69146729 5.13220215 4.69146729 5.13220215 4.69628906 8.59960938 C4.70259338 9.89435181 4.70889771 11.18909424 4.71539307 12.52307129 C4.71181339 13.94246557 4.70771146 15.36185862 4.703125 16.78125 C4.70447169 18.230917 4.70641226 19.68058357 4.70892334 21.13024902 C4.71187442 24.17004695 4.70757756 27.20972743 4.69824219 30.24951172 C4.68684756 34.15044249 4.69340713 38.05109807 4.70538712 41.95201874 C4.71260621 44.94596438 4.71031758 47.93984453 4.70513153 50.93379211 C4.70379517 52.37234021 4.7054423 53.81089421 4.71009064 55.24943542 C4.7151564 57.25808604 4.70606944 59.26675743 4.69628906 61.27539062 C4.69390228 62.9917572 4.69390228 62.9917572 4.69146729 64.74279785 C4.4375 67.4375 4.4375 67.4375 2.4375 69.4375 C-0.1875 69.5625 -0.1875 69.5625 -2.5625 69.4375 C-6.57662634 63.5013499 -5.99552163 57.29931266 -5.9609375 50.33984375 C-5.96380768 49.0728212 -5.96667786 47.80579865 -5.96963501 46.50038147 C-5.97167345 43.82635505 -5.96767655 41.15315582 -5.95361328 38.47924805 C-5.93650431 35.06061043 -5.94638214 31.64267862 -5.96433067 28.22406673 C-5.97780511 24.95013408 -5.96835954 21.67628562 -5.9609375 18.40234375 C-5.96701019 17.1782933 -5.97308289 15.95424286 -5.9793396 14.69309998 C-5.96988312 13.55164017 -5.96042664 12.41018036 -5.95068359 11.23413086 C-5.94829681 10.23296738 -5.94591003 9.23180389 -5.94345093 8.20030212 C-5.37882212 4.1053976 -4.33057284 0.73936609 0 0 Z " fill="#FAFBFB" transform="translate(248.5625,59.5625)"/>
<path d="M0 0 C6 0 6 0 8.8125 2.375 C13.22330828 7.66796994 12.2587574 13.48116014 12.29516602 20.06591797 C12.31232692 22.22819182 12.35620542 24.38891507 12.40039062 26.55078125 C12.41052276 27.93488462 12.41903723 29.31900097 12.42578125 30.703125 C12.44036377 31.95770508 12.45494629 33.21228516 12.4699707 34.50488281 C11.91509216 38.63144969 10.5911086 40.78153864 8 44 C6 45 6 45 0 45 C0 30.15 0 15.3 0 0 Z " fill="#FAFBFB" transform="translate(100,34)"/>
<path d="M0 0 C2.375 -0.125 2.375 -0.125 5 0 C7 2 7 2 7.22705078 4.33837891 C7.21134033 5.76802979 7.21134033 5.76802979 7.1953125 7.2265625 C7.18564453 8.7734375 7.18564453 8.7734375 7.17578125 10.3515625 C7.15902344 11.43179688 7.14226562 12.51203125 7.125 13.625 C7.11597656 14.71296875 7.10695312 15.8009375 7.09765625 16.921875 C7.07403409 19.61480152 7.04109556 22.30729255 7 25 C4.03 25 1.06 25 -2 25 C-2.0539507 21.58312217 -2.09365049 18.16709636 -2.125 14.75 C-2.14175781 13.78191406 -2.15851563 12.81382813 -2.17578125 11.81640625 C-2.18222656 10.88183594 -2.18867188 9.94726562 -2.1953125 8.984375 C-2.20578613 8.12553711 -2.21625977 7.26669922 -2.22705078 6.38183594 C-1.98293323 3.82096404 -1.28990512 2.20488971 0 0 Z " fill="#FBFBFC" transform="translate(192,60)"/>
<path d="M0 0 C0 15.18 0 30.36 0 46 C-0.99 45.67 -1.98 45.34 -3 45 C-2.505 44.505 -2.505 44.505 -2 44 C-1.91137777 41.36877735 -1.88477301 38.76396645 -1.90234375 36.1328125 C-1.9037587 35.34228485 -1.90517365 34.5517572 -1.90663147 33.73727417 C-1.91224636 31.19981161 -1.92479124 28.66243601 -1.9375 26.125 C-1.94251397 24.4205742 -1.94707705 22.71614701 -1.95117188 21.01171875 C-1.95935793 17.88425944 -1.97005794 14.75683289 -1.98413086 11.62939453 C-2.01294735 5.03884204 -2.01294735 5.03884204 -1 2 C-1.99 1.67 -2.98 1.34 -4 1 C-2 0 -2 0 0 0 Z " fill="#3867A4" transform="translate(100,98)"/>
<path d="M0 0 C1.66666667 1.66666667 3.33333333 3.33333333 5 5 C5.99 4.01 6.98 3.02 8 2 C8.66 2.33 9.32 2.66 10 3 C7.375 7.875 7.375 7.875 4 9 C3.34 8.34 2.68 7.68 2 7 C1.01 6.67 0.02 6.34 -1 6 C-0.67 4.02 -0.34 2.04 0 0 Z " fill="#3F68A4" transform="translate(148,45)"/>
<path d="M0 0 C1 2 1 2 0.0625 5.125 C-0.288125 6.07375 -0.63875 7.0225 -1 8 C-1.99 7.67 -2.98 7.34 -4 7 C-4 8.32 -4 9.64 -4 11 C-4.99 11.33 -5.98 11.66 -7 12 C-5.80805531 6.47371099 -4.4008703 3.82180842 0 0 Z " fill="#406CA7" transform="translate(179,48)"/>
<path d="M0 0 C3.3 0 6.6 0 10 0 C10 0.99 10 1.98 10 3 C10.99 3.33 11.98 3.66 13 4 C12.01 4.33 11.02 4.66 10 5 C9.01 4.34 8.02 3.68 7 3 C4.32854463 3.80161791 4.32854463 3.80161791 2 5 C2.66 4.01 3.32 3.02 4 2 C2.68 1.34 1.36 0.68 0 0 Z " fill="#4979B9" transform="translate(189,43)"/>
<path d="M0 0 C2.97 0.495 2.97 0.495 6 1 C6 1.99 6 2.98 6 4 C3.69 4 1.38 4 -1 4 C-0.67 2.68 -0.34 1.36 0 0 Z " fill="#4974B2" transform="translate(162,60)"/>
<path d="M0 0 C0.99 0.99 1.98 1.98 3 3 C1.68 4.32 0.36 5.64 -1 7 C-1.66 6.67 -2.32 6.34 -3 6 C-3 4.35 -3 2.7 -3 1 C-2.01 0.67 -1.02 0.34 0 0 Z " fill="#3C6DB2" transform="translate(123,22)"/>
<path d="M0 0 C0.66 0 1.32 0 2 0 C1.45773019 3.79588866 -0.20127563 5.47211993 -3 8 C-3.33 7.01 -3.66 6.02 -4 5 C-3.34 4.67 -2.68 4.34 -2 4 C-0.86649466 1.98330173 -0.86649466 1.98330173 0 0 Z " fill="#426BA9" transform="translate(126,83)"/>
<path d="M0 0 C0.33 0 0.66 0 1 0 C1 1.65 1 3.3 1 5 C2.98 5 4.96 5 7 5 C7 5.33 7 5.66 7 6 C0.9453125 6.1953125 0.9453125 6.1953125 -1 6 C-1.66 5.34 -2.32 4.68 -3 4 C-2.34 3.67 -1.68 3.34 -1 3 C-0.67 2.01 -0.34 1.02 0 0 Z " fill="#597FB9" transform="translate(253,140)"/>
<path d="M0 0 C0.66 0.33 1.32 0.66 2 1 C0.35 2.65 -1.3 4.3 -3 6 C-3.99 5.67 -4.98 5.34 -6 5 C-4.02 3.35 -2.04 1.7 0 0 Z " fill="#4C6FAB" transform="translate(248,44)"/>
<path d="M0 0 C1.32 0.66 2.64 1.32 4 2 C3.01 2 2.02 2 1 2 C1.66 2.33 2.32 2.66 3 3 C2.67 3.99 2.34 4.98 2 6 C0.68 5.34 -0.64 4.68 -2 4 C-1.34 2.68 -0.68 1.36 0 0 Z " fill="#4573B2" transform="translate(114,17)"/>
</svg>
